{
    "asset" : {
        "generator" : "Khronos glTF Blender I/O v1.4.40",
        "version" : "2.0"
    },
    "scene" : 0,
    "scenes" : [
        {
            "name" : "Scene",
            "nodes" : [
                3
            ]
        }
    ],
    "nodes" : [
        {
            "mesh" : 0,
            "name" : "Mesh_0"
        },
        {
            "children" : [
                0
            ],
            "name" : "198594b82f27429c8f79bbd707a71f8c.obj.cleaner.materialmerger.gle"
        },
        {
            "children" : [
                1
            ],
            "name" : "RootNode (model correction matrix)"
        },
        {
            "children" : [
                2
            ],
            "name" : "RootNode (gltf orientation matrix)",
            "rotation" : [
                -0.7071068286895752,
                0,
                0,
                0.7071068286895752
            ]
        }
    ],
    "materials" : [
        {
            "doubleSided" : true,
            "emissiveFactor" : [
                0.027771661058068275,
                0.32637590169906616,
                0.19693957269191742
            ],
            "name" : "initialShadingGroup",
            "pbrMetallicRoughness" : {
                "metallicFactor" : 0.9200000166893005,
                "roughnessFactor" : 0.6000000238418579
            }
        }
    ],
    "meshes" : [
        {
            "name" : "Mesh_0",
            "primitives" : [
                {
                    "attributes" : {
                        "POSITION" : 0,
                        "NORMAL" : 1,
                        "TEXCOORD_0" : 2
                    },
                    "indices" : 3,
                    "material" : 0
                }
            ]
        }
    ],
    "accessors" : [
        {
            "bufferView" : 0,
            "componentType" : 5126,
            "count" : 2819,
            "max" : [
                22.451372146606445,
                32.01689147949219,
                133.13711547851562
            ],
            "min" : [
                -69.1646957397461,
                -37.6813850402832,
                2.6813158988952637
            ],
            "type" : "VEC3"
        },
        {
            "bufferView" : 1,
            "componentType" : 5126,
            "count" : 2819,
            "type" : "VEC3"
        },
        {
            "bufferView" : 2,
            "componentType" : 5126,
            "count" : 2819,
            "type" : "VEC2"
        },
        {
            "bufferView" : 3,
            "componentType" : 5123,
            "count" : 4182,
            "type" : "SCALAR"
        }
    ],
    "bufferViews" : [
        {
            "buffer" : 0,
            "byteLength" : 33828,
            "byteOffset" : 0
        },
        {
            "buffer" : 0,
            "byteLength" : 33828,
            "byteOffset" : 33828
        },
        {
            "buffer" : 0,
            "byteLength" : 22552,
            "byteOffset" : 67656
        },
        {
            "buffer" : 0,
            "byteLength" : 8364,
            "byteOffset" : 90208
        }
    ],
    "buffers" : [
        {
            "byteLength" : 98572,
            "uri" : "data:application/octet-stream;base64,"
        }
    ]
}
