{
    "asset" : {
        "generator" : "Khronos glTF Blender I/O v1.4.40",
        "version" : "2.0"
    },
    "scene" : 0,
    "scenes" : [
        {
            "name" : "Scene",
            "nodes" : [
                5
            ]
        }
    ],
    "nodes" : [
        {
            "mesh" : 0,
            "name" : "Mesh_0"
        },
        {
            "mesh" : 1,
            "name" : "Mesh_1"
        },
        {
            "mesh" : 2,
            "name" : "Mesh_2"
        },
        {
            "children" : [
                0,
                1,
                2
            ],
            "name" : "b7060715efac438bb5db395f463c3c31.obj.cleaner.materialmerger.gle"
        },
        {
            "children" : [
                3
            ],
            "name" : "RootNode (model correction matrix)"
        },
        {
            "children" : [
                4
            ],
            "name" : "RootNode (gltf orientation matrix)",
            "rotation" : [
                -0.7071068286895752,
                0,
                0,
                0.7071068286895752
            ]
        }
    ],
    "materials" : [
        {
            "doubleSided" : true,
            "emissiveFactor" : [
                1,
                1,
                1
            ],
            "emissiveTexture" : {
                "index" : 0,
                "texCoord" : 0
            },
            "name" : "Lump",
            "occlusionTexture" : {
                "index" : 1,
                "texCoord" : 0
            },
            "pbrMetallicRoughness" : {}
        },
        {
            "doubleSided" : true,
            "name" : "lump_2",
            "occlusionTexture" : {
                "index" : 2,
                "texCoord" : 0
            },
            "pbrMetallicRoughness" : {}
        },
        {
            "doubleSided" : true,
            "name" : "Karkas",
            "occlusionTexture" : {
                "index" : 3,
                "texCoord" : 0
            },
            "pbrMetallicRoughness" : {}
        }
    ],
    "meshes" : [
        {
            "name" : "Mesh_0",
            "primitives" : [
                {
                    "attributes" : {
                        "POSITION" : 0,
                        "NORMAL" : 1,
                        "TEXCOORD_0" : 2
                    },
                    "indices" : 3,
                    "material" : 0
                }
            ]
        },
        {
            "name" : "Mesh_1",
            "primitives" : [
                {
                    "attributes" : {
                        "POSITION" : 4,
                        "NORMAL" : 5,
                        "TEXCOORD_0" : 6
                    },
                    "indices" : 3,
                    "material" : 1
                }
            ]
        },
        {
            "name" : "Mesh_2",
            "primitives" : [
                {
                    "attributes" : {
                        "POSITION" : 7,
                        "NORMAL" : 8,
                        "TEXCOORD_0" : 9
                    },
                    "indices" : 10,
                    "material" : 2
                }
            ]
        }
    ],
    "textures" : [
        {
            "sampler" : 0,
            "source" : 0
        },
        {
            "sampler" : 0,
            "source" : 1
        },
        {
            "sampler" : 0,
            "source" : 1
        },
        {
            "sampler" : 0,
            "source" : 2
        }
    ],
    "images" : [
        {
            "bufferView" : 4,
            "mimeType" : "image/png",
            "name" : "Lump_emissive"
        },
        {
            "bufferView" : 5,
            "mimeType" : "image/png",
            "name" : "Lump_occlusion"
        },
        {
            "bufferView" : 13,
            "mimeType" : "image/png",
            "name" : "Karkas_occlusion"
        }
    ],
    "accessors" : [
        {
            "bufferView" : 0,
            "componentType" : 5126,
            "count" : 434,
            "max" : [
                -0.42739999294281006,
                43.59049987792969,
                4.954999923706055
            ],
            "min" : [
                -9.068900108337402,
                -44.811100006103516,
                2.8259999752044678
            ],
            "type" : "VEC3"
        },
        {
            "bufferView" : 1,
            "componentType" : 5126,
            "count" : 434,
            "type" : "VEC3"
        },
        {
            "bufferView" : 2,
            "componentType" : 5126,
            "count" : 434,
            "type" : "VEC2"
        },
        {
            "bufferView" : 3,
            "componentType" : 5123,
            "count" : 2220,
            "type" : "SCALAR"
        },
        {
            "bufferView" : 6,
            "componentType" : 5126,
            "count" : 434,
            "max" : [
                26.025299072265625,
                43.28120040893555,
                6.633900165557861
            ],
            "min" : [
                4.850399971008301,
                -43.24869918823242,
                -0.5360000133514404
            ],
            "type" : "VEC3"
        },
        {
            "bufferView" : 7,
            "componentType" : 5126,
            "count" : 434,
            "type" : "VEC3"
        },
        {
            "bufferView" : 8,
            "componentType" : 5126,
            "count" : 434,
            "type" : "VEC2"
        },
        {
            "bufferView" : 9,
            "componentType" : 5126,
            "count" : 2741,
            "max" : [
                13.538200378417969,
                47.355899810791016,
                6.191199779510498
            ],
            "min" : [
                -10.938300132751465,
                -47.928001403808594,
                0.2786000072956085
            ],
            "type" : "VEC3"
        },
        {
            "bufferView" : 10,
            "componentType" : 5126,
            "count" : 2741,
            "type" : "VEC3"
        },
        {
            "bufferView" : 11,
            "componentType" : 5126,
            "count" : 2741,
            "type" : "VEC2"
        },
        {
            "bufferView" : 12,
            "componentType" : 5123,
            "count" : 12696,
            "type" : "SCALAR"
        }
    ],
    "bufferViews" : [
        {
            "buffer" : 0,
            "byteLength" : 5208,
            "byteOffset" : 0
        },
        {
            "buffer" : 0,
            "byteLength" : 5208,
            "byteOffset" : 5208
        },
        {
            "buffer" : 0,
            "byteLength" : 3472,
            "byteOffset" : 10416
        },
        {
            "buffer" : 0,
            "byteLength" : 4440,
            "byteOffset" : 13888
        },
        {
            "buffer" : 0,
            "byteLength" : 226814,
            "byteOffset" : 18328
        },
        {
            "buffer" : 0,
            "byteLength" : 1163441,
            "byteOffset" : 245144
        },
        {
            "buffer" : 0,
            "byteLength" : 5208,
            "byteOffset" : 1408588
        },
        {
            "buffer" : 0,
            "byteLength" : 5208,
            "byteOffset" : 1413796
        },
        {
            "buffer" : 0,
            "byteLength" : 3472,
            "byteOffset" : 1419004
        },
        {
            "buffer" : 0,
            "byteLength" : 32892,
            "byteOffset" : 1422476
        },
        {
            "buffer" : 0,
            "byteLength" : 32892,
            "byteOffset" : 1455368
        },
        {
            "buffer" : 0,
            "byteLength" : 21928,
            "byteOffset" : 1488260
        },
        {
            "buffer" : 0,
            "byteLength" : 25392,
            "byteOffset" : 1510188
        },
        {
            "buffer" : 0,
            "byteLength" : 717874,
            "byteOffset" : 1535580
        }
    ],
    "samplers" : [
        {
            "magFilter" : 9729,
            "minFilter" : 9986
        }
    ],
    "buffers" : [
        {
            "byteLength" : 2253456,
            "uri" : "data:application/octet-stream;base64,"
        }
    ]
}
